# xmcd CD database file
#
# Track frame offsets:
#	150
#	14519
#	27570
#	40802
#	54062
#	68588
#	82518
#	94011
#	107097
#	119644
#	132773
#	146829
#	160293
#	174347
#	187706
#	199961
#	213968
#	224920
#	237671
#	250793
#	263275
#	274880
#
# Disc length: 3855 seconds
#
# Revision: 2
# Processed by: cddbd v1.5.2PL0 Copyright (c) Steve Scherf et al.
# Submitted via: CDex 1.51
#
DISCID=360f0d16
DTITLE=Various Artist - The Essence Of Jazz Vocals Disc 1
DYEAR=2006
DGENRE=Jazz
TTITLE0=It Don't Mean A Thing (If It Ain't Got That Swing)/Ivie Anderson with Duke Ellington
TTITLE1=St. Louis Blues/Cab Calloway
TTITLE2=Changes/Bing Crosby with Paul Whiteman
TTITLE3=It's A Sin To Tell A Lie/Fats Waller and His Rhythm
TTITLE4=Who Loves You?/Billie Holiday with Teddy Wilson
TTITLE5=How Deep Is The Ocean (How Blue Is The Sky)?/Benny Goodman feat. Peggy Lee
TTITLE6=Between The Devil and The Deep Blue Sea/Count Basie feat. Helen Humes
TTITLE7=Whispering Hope/Jo Stafford and Sy Oliver with Tommy Dorsey
TTITLE8=Careless Love/Lena Horne with Henry Levine and The NBC Dixieland Jazz Group
TTITLE9=Georgia On My Mind/Anita O'Day with Gene Krupa
TTITLE10=Do Nothin' Til You Hear From Me/Stan Kenton feat. Red Dorris
TTITLE11=Who Threw The Whiskey In The Well?/Wynonie Harris with Lucky Millinder
TTITLE12=Angelina/Louis Prima and his Orchestra
TTITLE13=Stop Beating Around The Mulberry Bush/Jimmy Rushing with Count Basie
TTITLE14=Shout, Sister, Shout/Sister Rosetta Tharpe with Lucky Millinder
TTITLE15=There'll Be Some Changes Made/Irene Day with Gene Krupa
TTITLE16=This Year's Kisses/Helen Ward with Benny Goodman
TTITLE17=When I Go A-Dreaming/Martha Tilton with Benny Goodman
TTITLE18=Says My Heart/Mildred Bailey with Red Norvo
TTITLE19=They Say/Helen Forrest with Artie Shaw
TTITLE20=Stardust On The Moon/Edythe Wright with Tommy Dorsey
TTITLE21=Stardust/Frank Sinatra with Tommy Dorsey
EXTD=YEAR: 2006
EXTT0=
EXTT1=
EXTT2=
EXTT3=
EXTT4=
EXTT5=
EXTT6=
EXTT7=
EXTT8=
EXTT9=
EXTT10=
EXTT11=
EXTT12=
EXTT13=
EXTT14=
EXTT15=
EXTT16=
EXTT17=
EXTT18=
EXTT19=
EXTT20=
EXTT21=
PLAYORDER=
